<svg xmlns="http://www.w3.org/2000/svg" width="115" height="40" viewBox="0 0 115 40">
    <g fill="#FFF" fill-rule="evenodd">
        <path d="M33.793 27.417c.52-.533 1.13-.75 2.304-.75h4.728c1.317 0 2.093.24 2.565.75.588.602.777 1.306.777 3.556v9.002h-3.6v-1.523C39.016 39.758 38.452 40 37.299 40h-1.765c-1.152 0-1.763-.147-2.281-.676-.447-.462-.752-1.236-.752-2.977 0-1.646.235-2.663.8-3.244.587-.605 1.34-.896 3.668-.896 1.248 0 2.54.147 3.6.389v-1.187c0-1.308-.072-1.573-.236-1.766-.166-.148-.4-.196-.94-.196h-1.81c-.496 0-.755.048-.896.196-.187.193-.212.458-.26 1.258h-3.408c.022-2.225.234-2.953.775-3.484zm6.775 9.242v-2.226h-2.375c-1.366 0-1.694.097-1.93.338-.234.243-.282.534-.282 1.138 0 .68.048 1.04.235 1.235.189.192.447.217.917.217h1.012c.752 0 1.247-.071 2.423-.702zM54.568 39.974v-1.76C52.87 39.701 52.28 40 51.171 40h-1.426c-1.427 0-2.19-.248-2.78-.843-.81-.82-1.132-2.012-1.132-6.006 0-4.018.392-5.158 1.231-6.003.59-.594 1.377-.842 2.73-.842h1.475c1.133 0 1.749.248 3.3 1.562v-6.201h3.764v18.307h-3.765zm0-3.597V29.88c-.79-.372-1.354-.546-1.968-.546h-1.353c-.69 0-1.011.1-1.232.321-.344.323-.442.895-.442 3.497 0 2.605.098 3.153.442 3.5.22.222.542.298 1.232.298h1.229c.64 0 1.255-.175 2.092-.572zM60.46 27.417c.518-.533 1.13-.75 2.305-.75h4.728c1.316 0 2.093.24 2.564.75.587.602.776 1.306.776 3.556v9.002h-3.599v-1.523C65.682 39.758 65.117 40 63.965 40h-1.762c-1.154 0-1.767-.147-2.283-.676-.447-.462-.753-1.236-.753-2.977 0-1.646.235-2.663.8-3.244.588-.605 1.34-.896 3.668-.896 1.248 0 2.541.147 3.6.389v-1.187c0-1.308-.072-1.573-.235-1.766-.164-.148-.401-.196-.942-.196h-1.81c-.495 0-.753.048-.894.196-.188.193-.212.458-.26 1.258h-3.41c.024-2.225.236-2.953.776-3.484zm6.774 9.242v-2.226H64.86c-1.365 0-1.694.097-1.93.338-.234.243-.282.534-.282 1.138 0 .68.048 1.04.236 1.235.188.192.445.217.916.217h1.01c.754 0 1.248-.071 2.424-.702zM72.5 40V25.692c0-1.715.227-2.61.803-3.18.577-.572 1.228-.845 2.706-.845h3.158v2.88H77.31c-.5 0-.65.05-.8.175-.127.15-.176.42-.176 1.093v.548h2.833v2.955h-2.808V40H72.5M80.833 40V26.69h3.727v2.033c1.39-1.429 2.096-2.056 3.169-2.056h1.438v3.653h-1.73c-1.024 0-1.804.096-2.877.532V40h-3.727M101.667 26.667v13.308h-3.63V38.21c-1.65 1.523-2.191 1.79-3.37 1.79h-1.58c-1.131 0-1.84-.242-2.332-.751-.52-.556-.755-1.258-.755-3.194v-9.388h3.63v8.977c0 .555.07.871.282 1.09.212.216.424.29 1.062.29h1.037c.612 0 1.155-.146 2.027-.533v-9.824h3.629M103.333 21.667h3.334v2.78h-3.334v-2.78zm0 4.67h3.334V40h-3.334V26.338zM115 36.84h-1.648c-.626 0-.874-.052-.998-.15-.126-.152-.176-.351-.176-.955v-6.648H115v-3.011h-2.822v-1.91h-3.845v12.599c0 1.404.175 2.031.625 2.483.475.478 1.173.752 2.472.752 1.023 0 2.047-.15 2.645-.301l.925-.24v-2.62"/>
        <path d="M39.974 17.619c-.131-.82-.575-1.054-1.647-1.398-.815-.261-6.272-2-6.272-2s-3.802-1.436-6.622.595c-.38.275-.773.586-1.169.92.333-.396.644-.79.917-1.17 2.026-2.824.583-6.626.583-6.626s-1.747-5.455-2.01-6.27c-.346-1.072-.58-1.516-1.4-1.644-.82-.13-1.179.22-1.837 1.135-.5.693-3.84 5.348-3.84 5.348s-2.54 3.173-1.48 6.484c.143.446.318.916.513 1.395-.274-.439-.552-.856-.83-1.233-2.059-2.8-6.118-2.603-6.118-2.603s-5.727-.022-6.584-.024c-1.125-.003-1.62.084-1.995.822-.377.74-.154 1.191.51 2.098.506.691 3.9 5.307 3.9 5.307s2.233 3.398 5.707 3.412c.467.002.967-.019 1.482-.057-.501.126-.983.262-1.426.408-3.298 1.094-4.365 5.017-4.365 5.017L3.933 33.79c-.35 1.07-.421 1.567.166 2.153.587.587 1.083.515 2.153.162.813-.267 6.25-2.07 6.25-2.07s3.92-1.073 5.007-4.375c.146-.443.28-.924.404-1.424-.035.514-.055 1.013-.053 1.48.021 3.475 3.422 5.703 3.422 5.703l5.31 3.89c.91.663 1.36.885 2.1.507.738-.377.823-.872.818-1.998-.003-.855-.036-6.584-.036-6.584s.19-4.061-2.612-6.116c-.377-.276-.793-.553-1.232-.826.479.194.948.367 1.393.508 3.31 1.056 6.48-1.49 6.48-1.49s4.646-3.35 5.34-3.852c.912-.66 1.26-1.02 1.13-1.84zM20.249 13.4c.624.099.934 1.428.692 2.968-.243 1.541-.946 2.71-1.57 2.612-.626-.098-.936-1.427-.693-2.967.243-1.541.946-2.711 1.57-2.613zm-8 4.087c.286-.564 1.645-.448 3.035.26 1.39.705 2.285 1.736 1.999 2.3-.288.564-1.646.447-3.036-.258-1.39-.708-2.285-1.738-1.998-2.302zm4.218 7.684c-1.102 1.104-2.358 1.637-2.806 1.19-.447-.448.084-1.705 1.185-2.81 1.102-1.103 2.358-1.635 2.806-1.188.447.447-.083 1.704-1.185 2.808zm6.068 2.587c-.563.288-1.594-.605-2.303-1.994-.71-1.39-.828-2.75-.265-3.037.563-.287 1.595.605 2.304 1.994.71 1.389.828 2.75.264 3.037zm1.463-6.434c-1.54.245-2.87-.062-2.97-.687-.097-.625 1.07-1.33 2.61-1.575 1.54-.245 2.87.061 2.968.686.1.624-1.068 1.33-2.608 1.576z"/>
    </g>
</svg>
